<svg xmlns="http://www.w3.org/2000/svg" xmlns:xlink="http://www.w3.org/1999/xlink" width="120" height="120" viewBox="0 0 120 120">
  <defs>
    <clipPath id="clip-Shop">
      <rect width="120" height="120"/>
    </clipPath>
  </defs>
  <g id="Shop" clip-path="url(#clip-Shop)">
    <rect width="120" height="120" fill="#fff"/>
    <g id="noun-product-2893938" transform="translate(-116.672 -46.665)" opacity="0.7">
      <path id="Path_1941" data-name="Path 1941" d="M236.251,74.626v-.42l-12-24h0a6,6,0,0,0-5.581-3.54h-84a6,6,0,0,0-5.341,3.3l-12,24v.42h0a6,6,0,0,0-.66,2.28v84a6,6,0,0,0,6,6h108a6,6,0,0,0,6-6v-84a6,6,0,0,0-.42-2.04Zm-97.86-15.96h76.559l6,12H132.389Zm86.281,96h-96v-72h96Z" transform="translate(0 0)" fill="#0a4885"/>
      <path id="Path_1942" data-name="Path 1942" d="M262.667,245.332h36a6,6,0,0,0,0-12h-36a6,6,0,0,0,0,12Z" transform="translate(-103.996 -138.667)" fill="#0a4885"/>
    </g>
  </g>
</svg>
